HIERARCHY
ROOT Hips
{
	OFFSET 0.000000 89.005402 0.000000
	CHANNELS 6 Xposition Yposition Zposition Xrotation Yrotation Zrotation
	JOINT Spine
	{
		OFFSET 0.116900 10.681000 0.373400
		CHANNELS 3 Xrotation Yrotation Zrotation
		JOINT Spine1
		{
			OFFSET 0.000000 13.840401 0.053500
			CHANNELS 3 Xrotation Yrotation Zrotation
			JOINT Spine2
			{
				OFFSET 0.000000 14.712700 -0.366200
				CHANNELS 3 Xrotation Yrotation Zrotation
				JOINT Neck
				{
					OFFSET 0.000000 35.415497 -3.314200
					CHANNELS 3 Xrotation Yrotation Zrotation
					JOINT Head
					{
						OFFSET 0.000000 16.899200 1.218300
						CHANNELS 3 Xrotation Yrotation Zrotation
						JOINT HeadTop_End
						{
							OFFSET 0.000000 22.206207 2.192500
							CHANNELS 3 Xrotation Yrotation Zrotation
							End Site
							{
								OFFSET 0.000000 22.314178 0.000000
							}
						}
					}
				}
				JOINT LeftShoulder
				{
					OFFSET 12.896400 26.716293 -4.548400
					CHANNELS 3 Xrotation Yrotation Zrotation
					JOINT LeftArm
					{
						OFFSET 19.027000 -4.857010 -1.718400
						CHANNELS 3 Xrotation Yrotation Zrotation
						JOINT LeftForeArm
						{
							OFFSET 24.179897 0.000000 0.000000
							CHANNELS 3 Xrotation Yrotation Zrotation
							JOINT LeftHand
							{
								OFFSET 27.156403 0.000000 0.000000
								CHANNELS 3 Xrotation Yrotation Zrotation
								JOINT LeftHandIndex1
								{
									OFFSET 16.441200 0.000000 0.000000
									CHANNELS 3 Xrotation Yrotation Zrotation
									JOINT LeftHandIndex2
									{
										OFFSET 4.821899 0.000000 0.000000
										CHANNELS 3 Xrotation Yrotation Zrotation
										JOINT LeftHandIndex3
										{
											OFFSET 6.386497 0.000000 0.000000
											CHANNELS 3 Xrotation Yrotation Zrotation
											JOINT LeftHandIndex4
											{
												OFFSET 5.188988 0.000000 0.000000
												CHANNELS 3 Xrotation Yrotation Zrotation
												End Site
												{
													OFFSET -0.178703 5.185913 0.000177
												}
											}
										}
									}
								}
								JOINT LeftHandThumb1
								{
									OFFSET 6.534897 -5.032593 5.900300
									CHANNELS 3 Xrotation Yrotation Zrotation
									JOINT LeftHandThumb2
									{
										OFFSET 3.818176 -2.204422 2.204423
										CHANNELS 3 Xrotation Yrotation Zrotation
										JOINT LeftHandThumb3
										{
											OFFSET 3.252098 -1.877594 1.877601
											CHANNELS 3 Xrotation Yrotation Zrotation
											JOINT LeftHandThumb4
											{
												OFFSET 5.251778 -3.032120 3.032117
												CHANNELS 3 Xrotation Yrotation Zrotation
												End Site
												{
													OFFSET 0.000023 6.780014 0.000000
												}
											}
										}
									}
								}
							}
						}
					}
				}
				JOINT RightShoulder
				{
					OFFSET -12.896300 26.716293 -4.548400
					CHANNELS 3 Xrotation Yrotation Zrotation
					JOINT RightArm
					{
						OFFSET -19.027000 -4.857010 -1.718400
						CHANNELS 3 Xrotation Yrotation Zrotation
						JOINT RightForeArm
						{
							OFFSET -24.179897 0.000000 0.000000
							CHANNELS 3 Xrotation Yrotation Zrotation
							JOINT RightHand
							{
								OFFSET -27.156403 0.000000 0.000000
								CHANNELS 3 Xrotation Yrotation Zrotation
								JOINT RightHandThumb1
								{
									OFFSET -6.591202 -4.852203 5.988100
									CHANNELS 3 Xrotation Yrotation Zrotation
									JOINT RightHandThumb2
									{
										OFFSET -3.818176 -2.204422 2.204423
										CHANNELS 3 Xrotation Yrotation Zrotation
										JOINT RightHandThumb3
										{
											OFFSET -3.252098 -1.877594 1.877601
											CHANNELS 3 Xrotation Yrotation Zrotation
											JOINT RightHandThumb4
											{
												OFFSET -5.251778 -3.032120 3.032117
												CHANNELS 3 Xrotation Yrotation Zrotation
												End Site
												{
													OFFSET -0.000023 6.780014 0.000000
												}
											}
										}
									}
								}
								JOINT RightHandIndex1
								{
									OFFSET -16.029404 0.000000 0.000000
									CHANNELS 3 Xrotation Yrotation Zrotation
									JOINT RightHandIndex2
									{
										OFFSET -5.213303 0.000000 0.000000
										CHANNELS 3 Xrotation Yrotation Zrotation
										JOINT RightHandIndex3
										{
											OFFSET -6.386528 0.000000 0.000000
											CHANNELS 3 Xrotation Yrotation Zrotation
											JOINT RightHandIndex4
											{
												OFFSET -5.189026 0.000000 0.000000
												CHANNELS 3 Xrotation Yrotation Zrotation
												End Site
												{
													OFFSET 0.236702 5.183624 0.001972
												}
											}
										}
									}
								}
							}
						}
					}
				}
			}
		}
	}
	JOINT LeftUpLeg
	{
		OFFSET 14.073000 -7.904099 -1.463000
		CHANNELS 3 Xrotation Yrotation Zrotation
		JOINT LeftLeg
		{
			OFFSET -0.109806 -34.073280 4.093200
			CHANNELS 3 Xrotation Yrotation Zrotation
			JOINT LeftFoot
			{
				OFFSET 0.109806 -29.899420 -6.319000
				CHANNELS 3 Xrotation Yrotation Zrotation
				JOINT LeftToeBase
				{
					OFFSET 1.551100 -14.988700 20.535801
					CHANNELS 3 Xrotation Yrotation Zrotation
					JOINT LeftToe_End
					{
						OFFSET 0.221200 0.570800 13.248301
						CHANNELS 3 Xrotation Yrotation Zrotation
						End Site
						{
							OFFSET 0.000000 13.262435 0.000000
						}
					}
				}
			}
		}
	}
	JOINT RightUpLeg
	{
		OFFSET -13.839300 -7.904099 -1.463000
		CHANNELS 3 Xrotation Yrotation Zrotation
		JOINT RightLeg
		{
			OFFSET 0.109694 -34.073219 4.093300
			CHANNELS 3 Xrotation Yrotation Zrotation
			JOINT RightFoot
			{
				OFFSET -0.109694 -29.899384 -6.319200
				CHANNELS 3 Xrotation Yrotation Zrotation
				JOINT RightToeBase
				{
					OFFSET -1.551100 -14.988700 20.535801
					CHANNELS 3 Xrotation Yrotation Zrotation
					JOINT RightToe_End
					{
						OFFSET -0.221200 0.570900 13.248299
						CHANNELS 3 Xrotation Yrotation Zrotation
						End Site
						{
							OFFSET 0.000000 13.262440 0.000000
						}
					}
				}
			}
		}
	}
}
MOTION
Frames: 4
Frame Time: 0.033333
0.425083 87.517441 1.224327 -3.753214 -5.220547 -3.395424 3.315391 1.526655 2.379035 1.162843 0.340797 1.562140 1.137154 0.363604 1.557407 5.626309 -0.078962 0.451939 -7.563354 1.375628 -0.080154 -0.000000 0.000000 0.000000 1.050462 -17.442281 -12.319423 3.911580 -19.980013 -69.768791 -0.000006 -1.459359 0.000004 -33.230407 -1.364755 -6.186709 0.020286 -0.966414 -7.593213 0.267546 1.751859 -17.365071 0.057536 0.819939 -8.028016 -0.000001 -0.000000 0.000000 -0.663003 2.160314 4.832505 11.864116 25.422533 17.056888 -13.813929 3.537285 9.035992 0.000000 0.000001 0.000002 1.205897 15.344276 14.705179 13.158869 27.555121 58.785143 -0.000008 6.693729 -0.000005 -20.179087 -0.514103 6.782806 -1.655316 -0.173850 -4.218558 12.714117 -29.825582 -16.130859 -15.548914 -3.560193 -12.705083 0.000001 -0.000002 -0.000001 0.036554 1.262074 6.823641 0.213715 -1.396039 17.407044 0.046026 -0.653849 8.053202 0.000000 -0.000000 -0.000001 -10.575927 14.629294 11.281623 14.301556 1.679074 4.161496 -0.855766 0.906983 -8.532980 -4.939516 -0.000005 -0.000001 -0.000001 -0.000000 0.000000 4.184385 -10.123460 2.648745 5.525097 -9.464200 -3.267439 -5.128832 -2.088235 4.569654 -7.282875 0.000001 -0.000000 0.000000 -0.000003 -0.000000 
0.457119 87.463348 1.329068 -3.597190 -5.254295 -3.418271 3.315483 1.527014 2.375510 1.162842 0.340799 1.562140 1.137153 0.363603 1.557408 5.574783 -0.078963 0.451939 -7.645652 1.407599 -0.117335 0.000000 0.000000 0.000000 1.050712 -17.487634 -12.286735 3.889967 -19.987220 -69.780634 -0.000009 -1.493292 -0.000009 -33.240669 -1.367469 -6.186806 0.049525 -0.956823 -7.673099 0.267546 1.751857 -17.365085 0.057536 0.819937 -8.028029 -0.000000 -0.000001 -0.000003 -0.581838 2.204969 4.795457 11.851265 25.399672 17.104694 -13.840519 3.558860 9.054115 -0.000001 -0.000002 -0.000004 1.203268 15.353937 14.705863 13.197006 27.614272 58.689685 0.000002 6.775206 -0.000000 -20.265062 -0.488055 6.810907 -1.658038 -0.147759 -4.194080 12.704999 -29.822826 -16.132123 -15.551087 -3.547581 -12.702277 0.000001 0.000001 0.000003 0.038113 1.264134 6.798351 0.213722 -1.396035 17.407033 0.046024 -0.653842 8.053231 0.000000 -0.000000 -0.000002 -10.824357 14.606728 11.336451 14.685725 1.709093 4.161433 -1.204538 0.916717 -8.530431 -4.939517 -0.000004 0.000000 -0.000000 -0.000001 0.000000 3.956317 -10.118007 2.610470 5.828088 -9.485922 -3.241883 -5.340532 -2.076762 4.641799 -7.299217 -0.000005 0.000000 -0.000000 0.000002 0.000000 
0.492686 87.399879 1.444086 -3.431520 -5.282929 -3.450883 3.315378 1.527139 2.379460 1.162843 0.345984 1.562140 1.137153 0.363603 1.559563 5.522863 -0.078964 0.451940 -7.758592 1.450170 -0.175275 -0.000000 -0.000000 -0.000000 1.051090 -17.538550 -12.249896 3.877223 -19.996685 -69.800162 0.000001 -1.547635 -0.000011 -33.290704 -1.393545 -6.176552 0.099674 -0.958787 -7.586140 0.267546 1.751855 -17.365114 0.057539 0.819938 -8.028020 -0.000000 -0.000000 -0.000001 -0.473376 2.193477 4.693249 11.834120 25.357328 17.186405 -13.861759 3.585597 9.051822 -0.000001 -0.000000 0.000000 1.200498 15.402336 14.719981 13.294359 27.659599 58.534619 0.000007 6.910912 -0.000019 -20.424176 -0.412051 6.810044 -1.655995 -0.178154 -4.196882 12.654245 -29.723631 -16.146431 -15.537193 -3.575956 -12.718541 0.000002 0.000002 0.000000 0.051513 1.297445 6.558448 0.213719 -1.396032 17.407067 0.046027 -0.653847 8.053219 0.000002 -0.000002 -0.000001 -11.113032 14.562018 11.409224 15.144597 1.747824 4.153285 -1.591668 0.930341 -8.516410 -4.939518 0.000011 0.000005 -0.000000 0.000000 0.000000 3.713225 -10.118651 2.582808 6.167041 -9.508846 -3.228607 -5.579135 -2.073505 4.730323 -7.314030 -0.000006 -0.000001 -0.000001 -0.000001 0.000000 
0.526324 87.292404 1.568567 -3.255765 -5.319407 -3.468286 3.315711 1.531475 2.366977 1.163453 0.353015 1.562140 1.137754 0.367771 1.563695 5.480150 -0.073286 0.451940 -7.858620 1.529135 -0.252642 -0.000000 -0.000000 -0.000000 1.054360 -17.564084 -12.221188 3.900656 -20.055100 -69.809232 -0.000001 -1.629712 -0.000006 -33.376785 -1.438858 -6.152499 0.146055 -0.984317 -7.353424 0.267546 1.751856 -17.365080 0.057538 0.819942 -8.028003 0.000000 -0.000000 -0.000002 -0.419440 2.109878 4.580371 11.833843 25.312859 17.239751 -13.860813 3.596531 9.030092 -0.000002 0.000000 0.000003 1.196008 15.485953 14.742513 13.488852 27.721610 58.281348 0.000004 7.119140 0.000016 -20.690414 -0.278469 6.786461 -1.639168 -0.265092 -4.235364 12.540526 -29.504252 -16.183443 -15.499543 -3.647105 -12.749182 0.000001 -0.000000 -0.000001 0.079271 1.349851 6.093011 0.213717 -1.396027 17.407048 0.046024 -0.653849 8.053226 -0.000001 0.000001 0.000002 -11.517013 14.483659 11.493656 15.838596 1.799193 4.158760 -2.072386 0.955424 -8.526228 -4.948348 -0.000001 -0.000000 0.000000 -0.000000 -0.000000 3.290141 -10.124202 2.506385 6.872970 -9.522990 -3.209808 -6.016627 -2.068647 4.849293 -7.329511 0.000000 0.000000 0.000000 -0.000001 -0.000000 
